<svg width="32" height="32" viewBox="0 0 32 32" fill="none" xmlns="http://www.w3.org/2000/svg">
<path d="M24 26H22V24C21.9993 23.8684 22.0245 23.7379 22.0742 23.6161C22.124 23.4943 22.1973 23.3834 22.29 23.29L26 19.59V10C26 9.73478 25.8946 9.48044 25.7071 9.29291C25.5196 9.10537 25.2652 9 25 9C24.7348 9 24.4804 9.10537 24.2929 9.29291C24.1054 9.48044 24 9.73478 24 10V15H22V10C22 9.20435 22.3161 8.4413 22.8787 7.87869C23.4413 7.31608 24.2044 7 25 7C25.7957 7 26.5587 7.31608 27.1213 7.87869C27.6839 8.4413 28 9.20435 28 10V20C27.9995 20.1323 27.9727 20.2632 27.9212 20.3851C27.8697 20.5069 27.7945 20.6174 27.7 20.71L24 24.41V26Z" fill="white"/>
<path d="M19 26H17V18.09C16.9993 17.9584 17.0245 17.828 17.0742 17.7061C17.124 17.5843 17.1973 17.4735 17.29 17.38L19.79 14.88C20.3623 14.337 21.1211 14.0343 21.91 14.0343C22.6989 14.0343 23.4577 14.337 24.03 14.88C24.5918 15.4425 24.9074 16.205 24.9074 17C24.9074 17.795 24.5918 18.5575 24.03 19.12L22.53 20.62L21.12 19.21L22.62 17.71C22.7137 17.6171 22.7881 17.5065 22.8389 17.3846C22.8897 17.2628 22.9158 17.132 22.9158 17C22.9158 16.868 22.8897 16.7373 22.8389 16.6154C22.7881 16.4936 22.7137 16.383 22.62 16.29C22.527 16.1963 22.4165 16.1219 22.2946 16.0711C22.1727 16.0204 22.042 15.9942 21.91 15.9942C21.778 15.9942 21.6473 16.0204 21.5254 16.0711C21.4036 16.1219 21.293 16.1963 21.2 16.29L19 18.5V26Z" fill="white"/>
<path d="M25.99 28H23.99V27H18.99V28H16.99V25H25.99V28Z" fill="white"/>
<path d="M9.91002 26H7.91002V24.41L4.28002 20.7C4.09893 20.5121 3.99845 20.2609 4.00002 20V10C4.00002 9.20435 4.31607 8.4413 4.87868 7.87869C5.44129 7.31608 6.20437 7 7.00002 7C7.79567 7 8.55872 7.31608 9.12133 7.87869C9.68393 8.4413 10 9.20435 10 10V15H8.00002V10C8.00002 9.73478 7.89465 9.48044 7.70711 9.29291C7.51957 9.10537 7.26523 9 7.00002 9C6.7348 9 6.48043 9.10537 6.2929 9.29291C6.10536 9.48044 6.00002 9.73478 6.00002 10V19.59L9.62001 23.3C9.8011 23.4879 9.90158 23.7391 9.90001 24L9.91002 26Z" fill="white"/>
<path d="M15 26H13V18.51L10.72 16.3C10.6269 16.2047 10.5156 16.1291 10.3929 16.0774C10.2701 16.0257 10.1382 15.9991 10.005 15.9991C9.87179 15.9991 9.73991 16.0257 9.61713 16.0774C9.49434 16.1291 9.38314 16.2047 9.29001 16.3C9.19628 16.393 9.12187 16.5036 9.07111 16.6254C9.02034 16.7473 8.9942 16.878 8.9942 17.01C8.9942 17.142 9.02034 17.2727 9.07111 17.3946C9.12187 17.5164 9.19628 17.627 9.29001 17.72L10.79 19.22L9.38 20.63L7.88 19.13C7.3182 18.5675 7.00262 17.805 7.00262 17.01C7.00262 16.215 7.3182 15.4525 7.88 14.89C8.44995 14.3424 9.20964 14.0366 10 14.0366C10.7904 14.0366 11.5501 14.3424 12.12 14.89L14.69 17.38C14.7875 17.473 14.8652 17.5846 14.9185 17.7083C14.9718 17.8321 14.9995 17.9653 15 18.1V26Z" fill="white"/>
<path d="M14.99 28H12.99V27H7.91003V28H5.91003V25H14.99V28Z" fill="white"/>
<path d="M17 9H15C14.4696 9 13.9609 9.21071 13.5858 9.58578C13.2107 9.96086 13 10.4696 13 11V13H19V11C19 10.4696 18.7893 9.96086 18.4142 9.58578C18.0391 9.21071 17.5304 9 17 9Z" fill="white"/>
<path d="M15.99 8C17.0946 8 17.99 7.10457 17.99 6C17.99 4.89543 17.0946 4 15.99 4C14.8854 4 13.99 4.89543 13.99 6C13.99 7.10457 14.8854 8 15.99 8Z" fill="white"/>
</svg>
