<svg width="162" height="25" viewBox="0 0 162 25" fill="none" xmlns="http://www.w3.org/2000/svg">
<path fill-rule="evenodd" clip-rule="evenodd" d="M0 19.451V5.05098C0 2.40001 2.14903 0.250977 4.8 0.250977H19.2V5.05098H24V19.451C24 22.1019 21.851 24.251 19.2 24.251H4.8V19.451H0ZM16.8 7.45098H7.2V17.051H16.8V7.45098Z" fill="#772AB3"/>
<path d="M39.82 21.251L36.56 6.65098H39.44L41.58 17.791H41.62L43.76 7.85098H47.18L49.32 17.791H49.36L51.5 6.65098H54.38L51.1 21.251H47.7L45.48 11.311H45.44L43.24 21.251H39.82ZM59.8302 21.451C57.9635 21.451 56.5235 20.9843 55.5102 20.051C54.5102 19.1176 54.0102 17.7843 54.0102 16.051C54.0102 14.371 54.4702 13.051 55.3902 12.091C56.3102 11.131 57.5768 10.651 59.1902 10.651C60.7502 10.651 61.9502 11.1043 62.7902 12.011C63.6435 12.9176 64.0702 14.2043 64.0702 15.871C64.0702 16.0576 64.0635 16.271 64.0502 16.511C64.0502 16.751 64.0435 16.931 64.0302 17.051H55.5502V15.151H61.8902L61.5102 15.731C61.5102 14.691 61.3168 13.9176 60.9302 13.411C60.5568 12.9043 59.9768 12.651 59.1902 12.651C58.3635 12.651 57.7435 12.9176 57.3302 13.451C56.9168 13.971 56.7102 14.751 56.7102 15.791V16.591C56.7102 17.5243 56.9568 18.211 57.4502 18.651C57.9435 19.091 58.6968 19.311 59.7102 19.311C60.2835 19.311 60.8902 19.2576 61.5302 19.151C62.1702 19.0443 62.7368 18.8976 63.2302 18.711L63.5502 20.811C63.0568 21.011 62.4768 21.1643 61.8102 21.271C61.1568 21.391 60.4968 21.451 59.8302 21.451ZM65.5355 21.251V10.851H68.1755L68.1955 12.791H68.2555C68.6021 12.3243 69.0088 11.9376 69.4755 11.631C69.9555 11.311 70.4755 11.071 71.0355 10.911C71.6088 10.7376 72.1955 10.651 72.7955 10.651V12.991C71.9688 12.991 71.2155 13.1443 70.5355 13.451C69.8555 13.7576 69.3155 14.1776 68.9155 14.711C68.5155 15.231 68.3155 15.811 68.3155 16.451V21.251H65.5355ZM73.9589 21.251V10.851H76.5789L76.5989 12.071H76.6389C77.0656 11.591 77.5589 11.2376 78.1189 11.011C78.6922 10.771 79.3522 10.651 80.0989 10.651C81.3522 10.651 82.2722 10.991 82.8589 11.671C83.4589 12.3376 83.7589 13.3976 83.7589 14.851V21.251H81.0189V15.391C81.0189 14.5243 80.8722 13.8976 80.5789 13.511C80.2856 13.111 79.8189 12.911 79.1789 12.911C78.6989 12.911 78.2722 13.011 77.8989 13.211C77.5256 13.3976 77.2322 13.6576 77.0189 13.991C76.8189 14.311 76.7189 14.691 76.7189 15.131V21.251H73.9589ZM90.6923 21.251V6.65098H100.952V9.09098H93.4923V12.951H100.552V15.331H93.4923V21.251H90.6923ZM102.514 9.19098V6.65098H105.314V9.19098H102.514ZM102.514 21.251V10.991H105.314V21.251H102.514ZM107.633 21.251V10.851H110.253L110.273 12.071H110.313C110.74 11.591 111.233 11.2376 111.793 11.011C112.366 10.771 113.026 10.651 113.773 10.651C115.026 10.651 115.946 10.991 116.533 11.671C117.133 12.3376 117.433 13.3976 117.433 14.851V21.251H114.693V15.391C114.693 14.5243 114.546 13.8976 114.253 13.511C113.96 13.111 113.493 12.911 112.853 12.911C112.373 12.911 111.946 13.011 111.573 13.211C111.2 13.3976 110.906 13.6576 110.693 13.991C110.493 14.311 110.393 14.691 110.393 15.131V21.251H107.633ZM121.838 21.451C120.811 21.451 119.998 21.1643 119.398 20.591C118.811 20.0176 118.518 19.251 118.518 18.291C118.518 17.091 118.984 16.1643 119.918 15.511C120.864 14.8576 122.204 14.531 123.938 14.531H125.318C125.318 14.0643 125.258 13.7043 125.138 13.451C125.031 13.1976 124.838 13.0243 124.558 12.931C124.291 12.8243 123.904 12.771 123.398 12.771C122.731 12.771 122.038 12.8443 121.318 12.991C120.598 13.1243 119.918 13.3176 119.278 13.571L118.938 11.451C119.631 11.1976 120.398 11.0043 121.238 10.871C122.091 10.7243 122.938 10.651 123.778 10.651C124.844 10.651 125.684 10.7776 126.298 11.031C126.911 11.2843 127.358 11.711 127.638 12.311C127.918 12.8976 128.058 13.691 128.058 14.691V21.251H125.438L125.398 20.051H125.378C125.004 20.4776 124.491 20.8176 123.838 21.071C123.184 21.3243 122.518 21.451 121.838 21.451ZM122.838 19.371C123.304 19.371 123.724 19.291 124.098 19.131C124.471 18.971 124.764 18.751 124.978 18.471C125.204 18.1776 125.318 17.8576 125.318 17.511V16.331H124.338C123.258 16.331 122.451 16.471 121.918 16.751C121.384 17.0176 121.118 17.4376 121.118 18.011C121.118 18.4376 121.264 18.771 121.558 19.011C121.864 19.251 122.291 19.371 122.838 19.371ZM129.949 21.251V10.851H132.569L132.589 12.071H132.629C133.055 11.591 133.549 11.2376 134.109 11.011C134.682 10.771 135.342 10.651 136.089 10.651C137.342 10.651 138.262 10.991 138.849 11.671C139.449 12.3376 139.749 13.3976 139.749 14.851V21.251H137.009V15.391C137.009 14.5243 136.862 13.8976 136.569 13.511C136.275 13.111 135.809 12.911 135.169 12.911C134.689 12.911 134.262 13.011 133.889 13.211C133.515 13.3976 133.222 13.6576 133.009 13.991C132.809 14.311 132.709 14.691 132.709 15.131V21.251H129.949ZM146.753 21.451C145.54 21.451 144.5 21.2376 143.633 20.811C142.767 20.3843 142.107 19.771 141.653 18.971C141.2 18.1576 140.973 17.1843 140.973 16.051C140.973 14.9043 141.2 13.931 141.653 13.131C142.107 12.331 142.767 11.7176 143.633 11.291C144.5 10.8643 145.54 10.651 146.753 10.651C147.367 10.651 147.94 10.711 148.473 10.831C149.007 10.951 149.527 11.1443 150.033 11.411L149.593 13.511C149.127 13.2576 148.673 13.0776 148.233 12.971C147.807 12.851 147.38 12.791 146.953 12.791C145.94 12.791 145.153 13.071 144.593 13.631C144.047 14.191 143.773 14.9976 143.773 16.051C143.773 17.091 144.047 17.8976 144.593 18.471C145.153 19.031 145.94 19.311 146.953 19.311C147.38 19.311 147.807 19.2576 148.233 19.151C148.673 19.031 149.127 18.8443 149.593 18.591L150.033 20.691C149.527 20.9576 149.007 21.151 148.473 21.271C147.94 21.391 147.367 21.451 146.753 21.451ZM156.877 21.451C155.01 21.451 153.57 20.9843 152.557 20.051C151.557 19.1176 151.057 17.7843 151.057 16.051C151.057 14.371 151.517 13.051 152.437 12.091C153.357 11.131 154.624 10.651 156.237 10.651C157.797 10.651 158.997 11.1043 159.837 12.011C160.69 12.9176 161.117 14.2043 161.117 15.871C161.117 16.0576 161.11 16.271 161.097 16.511C161.097 16.751 161.09 16.931 161.077 17.051H152.597V15.151H158.937L158.557 15.731C158.557 14.691 158.364 13.9176 157.977 13.411C157.604 12.9043 157.024 12.651 156.237 12.651C155.41 12.651 154.79 12.9176 154.377 13.451C153.964 13.971 153.757 14.751 153.757 15.791V16.591C153.757 17.5243 154.004 18.211 154.497 18.651C154.99 19.091 155.744 19.311 156.757 19.311C157.33 19.311 157.937 19.2576 158.577 19.151C159.217 19.0443 159.784 18.8976 160.277 18.711L160.597 20.811C160.104 21.011 159.524 21.1643 158.857 21.271C158.204 21.391 157.544 21.451 156.877 21.451Z" fill="white"/>
</svg>
