<svg width="32" height="39" viewBox="0 0 32 39" fill="none" xmlns="http://www.w3.org/2000/svg">
<path d="M16.64 19.6406H15.36C14.681 19.6406 14.0299 19.341 13.5498 18.8077C13.0698 18.2744 12.8 17.5511 12.8 16.7969V15.375C12.8 14.6208 13.0698 13.8975 13.5498 13.3642C14.0299 12.8309 14.681 12.5312 15.36 12.5312H20.48V15.375H15.36V16.7969H16.64V19.6406Z" fill="white"/>
<path d="M17.92 23.9062H12.8V21.0625H17.92V19.6406H15.36V16.7969H17.92C18.599 16.7969 19.2501 17.0965 19.7302 17.6298C20.2103 18.1631 20.48 18.8864 20.48 19.6406V21.0625C20.48 21.8167 20.2103 22.54 19.7302 23.0733C19.2501 23.6066 18.599 23.9062 17.92 23.9062Z" fill="white"/>
<path d="M17.92 11.1094H15.36V13.9531H17.92V11.1094Z" fill="white"/>
<path d="M17.92 22.4844H15.36V25.3281H17.92V22.4844Z" fill="white"/>
<path d="M32 29.5938H0V4H32V29.5938ZM2.90909 26.3945H29.0909V7.19922H2.90909V26.3945Z" fill="white"/>
</svg>
